<svg width="20" height="20" viewBox="0 0 20 20" fill="none" xmlns="http://www.w3.org/2000/svg">
    <path d="M14.6481 3.69301L12.9814 2.81839C11.5184 2.05063 10.7869 1.66675 9.99996 1.66675C9.21307 1.66675 8.48156 2.05063 7.01854 2.81839L6.75043 2.95908L14.1863 7.20814L17.5336 5.53452C16.995 4.92466 16.1262 4.4687 14.6481 3.69301Z" fill="#2A4AB5"/>
    <path d="M18.1236 6.63704L14.7916 8.30302V10.8334C14.7916 11.1786 14.5118 11.4584 14.1666 11.4584C13.8214 11.4584 13.5416 11.1786 13.5416 10.8334V8.92802L10.625 10.3864V18.2534C11.2232 18.1044 11.9039 17.7472 12.9814 17.1818L14.6481 16.3071C16.4411 15.3662 17.3376 14.8957 17.8355 14.0503C18.3333 13.2049 18.3333 12.1529 18.3333 10.0488V9.95134C18.3333 8.37413 18.3333 7.38806 18.1236 6.63704Z" fill="#2A4AB5"/>
    <path d="M9.37496 18.2534V10.3864L1.87633 6.63704C1.66663 7.38806 1.66663 8.37412 1.66663 9.95134V10.0488C1.66663 12.1529 1.66663 13.2049 2.16446 14.0503C2.66229 14.8957 3.55881 15.3662 5.35186 16.3071L7.01854 17.1818C8.09599 17.7472 8.77669 18.1044 9.37496 18.2534Z" fill="#2A4AB5"/>
    <path d="M2.46637 5.53452L9.99996 9.30131L12.8426 7.88L5.4371 3.64829L5.35187 3.69301C3.87375 4.4687 3.00488 4.92466 2.46637 5.53452Z" fill="#2A4AB5"/>
</svg>