<svg width="161" height="160" viewBox="0 0 161 160" fill="none" xmlns="http://www.w3.org/2000/svg">
    <rect width="160" height="160" transform="translate(160.5 160) rotate(-180)" fill="#0F0F29"/>
    <path fill-rule="evenodd" clip-rule="evenodd" d="M67.7002 99.1999C85.3733 99.1999 99.7002 84.8731 99.7002 67.1999C99.7002 49.5268 85.3733 35.2 67.7002 35.2C50.0271 35.2 35.7002 49.5268 35.7002 67.1999C35.7002 84.8731 50.0271 99.1999 67.7002 99.1999ZM67.7002 115.2C94.2099 115.2 115.7 93.7096 115.7 67.1999C115.7 40.6903 94.2099 19.2 67.7002 19.2C41.1905 19.2 19.7002 40.6903 19.7002 67.1999C19.7002 93.7096 41.1905 115.2 67.7002 115.2Z" fill="white"/>
    <path d="M138.1 121.6C138.1 130.437 130.937 137.6 122.1 137.6C113.264 137.6 106.1 130.437 106.1 121.6C106.1 112.763 113.264 105.6 122.1 105.6C130.937 105.6 138.1 112.763 138.1 121.6Z" fill="white"/>
</svg>
